<?xml version="1.0" encoding="UTF-8"?>
<!DOCTYPE svg PUBLIC "-//W3C//DTD SVG 1.1//EN" "http://www.w3.org/Graphics/SVG/1.1/DTD/svg11.dtd">
<svg xmlns="http://www.w3.org/2000/svg" version="1.1" width="672px" height="102px" style="shape-rendering:geometricPrecision; text-rendering:geometricPrecision; image-rendering:optimizeQuality; fill-rule:evenodd; clip-rule:evenodd" xmlns:xlink="http://www.w3.org/1999/xlink">
<g><path style="opacity:1" fill="#020102" d="M -0.5,-0.5 C 223.5,-0.5 447.5,-0.5 671.5,-0.5C 671.5,33.5 671.5,67.5 671.5,101.5C 447.5,101.5 223.5,101.5 -0.5,101.5C -0.5,67.5 -0.5,33.5 -0.5,-0.5 Z"/></g>
<g><path style="opacity:1" fill="#943ff1" d="M 46.5,68.5 C 45.8333,71.5 45.1667,74.5 44.5,77.5C 39.8725,75.9188 37.5392,72.5855 37.5,67.5C 31.8857,64.8104 28.5524,66.6438 27.5,73C 27.8333,74.5 28.1667,76 28.5,77.5C 32.8007,79.9694 36.9674,82.6361 41,85.5C 41.6667,88.5 41.6667,91.5 41,94.5C 34.0821,90.2916 27.2488,85.9582 20.5,81.5C 19.6725,77.2044 19.1725,72.8711 19,68.5C 15.728,66.8922 12.728,64.8922 10,62.5C 9.16814,53.8142 9.33481,45.1475 10.5,36.5C 13.472,34.6944 16.3053,32.6944 19,30.5C 19.1998,26.2467 19.6998,22.08 20.5,18C 27.9618,14.0334 35.2951,9.86673 42.5,5.5C 45.3388,7.42027 48.3388,9.08694 51.5,10.5C 52.8333,13.5 52.8333,16.5 51.5,19.5C 48.5546,17.4436 45.3879,15.777 42,14.5C 38.265,16.2843 34.765,18.451 31.5,21C 34.927,22.796 38.0937,24.9627 41,27.5C 42.6768,26.4841 44.3435,25.4841 46,24.5C 48.2339,25.7015 50.4006,27.0348 52.5,28.5C 48.964,31.0977 45.2974,33.431 41.5,35.5C 36.6253,33.4788 32.1253,30.8121 28,27.5C 27.6667,29.8333 27.3333,32.1667 27,34.5C 23.4918,36.5871 20.1584,38.9204 17,41.5C 16.1701,47.1959 16.3368,52.8625 17.5,58.5C 22.957,63.7793 27.2904,62.9459 30.5,56C 30.3333,55.1667 30.1667,54.3333 30,53.5C 27.1667,51.3333 24.3333,49.1667 21.5,47C 24.8007,42.7908 28.4674,42.4574 32.5,46C 36.4124,45.8025 39.9124,44.3025 43,41.5C 44.3346,46.1359 43.168,49.8025 39.5,52.5C 37.3746,56.9783 38.5412,59.9783 43,61.5C 45.4373,60.1999 47.9373,59.1999 50.5,58.5C 50.3337,51.825 50.5004,45.1583 51,38.5C 54.6667,36.1667 58.3333,33.8333 62,31.5C 62.1764,28.1182 62.6764,24.7848 63.5,21.5C 65.5,22.8333 67.5,24.1667 69.5,25.5C 70.2324,34.7874 74.0658,36.4541 81,30.5C 81.6667,28.1667 81.6667,25.8333 81,23.5C 76.6667,20.5 72.3333,17.5 68,14.5C 67.3333,11.5 67.3333,8.5 68,5.5C 75,10.1667 82,14.8333 89,19.5C 89.3333,23.5 89.6667,27.5 90,31.5C 93,33.5 96,35.5 99,37.5C 99.8319,46.1858 99.6652,54.8525 98.5,63.5C 95.528,65.3056 92.6947,67.3056 90,69.5C 89.8002,73.7533 89.3002,77.92 88.5,82C 81.0382,85.9666 73.7049,90.1333 66.5,94.5C 63.3388,93.0869 60.3388,91.4203 57.5,89.5C 56.1667,86.5 56.1667,83.5 57.5,80.5C 60.2672,82.2995 63.1006,83.9662 66,85.5C 70.0798,83.75 73.9131,81.5833 77.5,79C 74.8333,77.3333 72.1667,75.6667 69.5,74C 66.6963,73.8707 64.0297,74.204 61.5,75C 59.6951,74.028 58.0284,72.8613 56.5,71.5C 59.9231,68.7357 63.5898,66.4024 67.5,64.5C 72.3677,66.5319 76.8677,69.1985 81,72.5C 81.3333,70.1667 81.6667,67.8333 82,65.5C 85.1584,62.9204 88.4918,60.5871 92,58.5C 92.8299,52.8041 92.6632,47.1375 91.5,41.5C 85.9669,36.399 81.3002,37.2323 77.5,44C 80.3161,47.4355 83.6494,50.4355 87.5,53C 83.061,57.6508 78.7277,57.4842 74.5,52.5C 71.528,54.3056 68.6947,56.3056 66,58.5C 65.3333,55.5 65.3333,52.5 66,49.5C 71.9905,45.8099 71.9905,42.1433 66,38.5C 63.3569,39.3207 61.0236,40.654 59,42.5C 58.6667,48.8333 58.3333,55.1667 58,61.5C 54.2221,63.9701 50.3888,66.3034 46.5,68.5 Z"/></g>
<g><path style="opacity:1" fill="#f4f4f4" d="M 207.5,12.5 C 213.34,11.5793 217.007,13.9127 218.5,19.5C 217.006,25.2496 213.339,27.4162 207.5,26C 202.246,21.4082 202.246,16.9082 207.5,12.5 Z"/></g>
<g><path style="opacity:1" fill="#f5f5f5" d="M 282.5,12.5 C 292.373,12.1922 295.04,16.3589 290.5,25C 281.319,28.3249 277.485,25.1582 279,15.5C 280.145,14.3636 281.312,13.3636 282.5,12.5 Z"/></g>
<g><path style="opacity:1" fill="#f5f5f5" d="M 591.5,12.5 C 601.373,12.1922 604.04,16.3589 599.5,25C 590.319,28.3249 586.485,25.1582 588,15.5C 589.145,14.3636 590.312,13.3636 591.5,12.5 Z"/></g>
<g><path style="opacity:1" fill="#fafafa" d="M 391.5,12.5 C 395.5,12.5 399.5,12.5 403.5,12.5C 403.333,31.1696 403.5,49.8363 404,68.5C 405.789,70.229 407.956,70.8957 410.5,70.5C 412.166,79.6796 408.499,82.8463 399.5,80C 396.829,78.75 394.663,76.9167 393,74.5C 391.547,53.8872 391.047,33.2205 391.5,12.5 Z"/></g>
<g><path style="opacity:1" fill="#f6f6f6" d="M 138.5,16.5 C 148.839,16.3335 159.172,16.5002 169.5,17C 185.903,20.7924 193.57,31.1257 192.5,48C 193.611,65.4623 185.611,75.7956 168.5,79C 158.506,79.4998 148.506,79.6665 138.5,79.5C 138.5,58.5 138.5,37.5 138.5,16.5 Z"/></g>
<g><path style="opacity:1" fill="#f9f9f9" d="M 441.5,16.5 C 452.505,16.3335 463.505,16.5002 474.5,17C 485.383,21.1129 488.549,28.6129 484,39.5C 482.316,41.3513 480.483,43.018 478.5,44.5C 490.685,50.2215 493.852,59.2215 488,71.5C 485.736,74.4335 482.902,76.6001 479.5,78C 466.886,79.3976 454.219,79.8976 441.5,79.5C 441.5,58.5 441.5,37.5 441.5,16.5 Z"/></g>
<g><path style="opacity:1" fill="#f8f8f8" d="M 315.5,21.5 C 316.5,21.5 317.5,21.5 318.5,21.5C 318.5,25.1667 318.5,28.8333 318.5,32.5C 323.167,32.5 327.833,32.5 332.5,32.5C 332.5,35.5 332.5,38.5 332.5,41.5C 327.833,41.5 323.167,41.5 318.5,41.5C 318.334,49.5069 318.5,57.5069 319,65.5C 319.465,66.9308 320.299,68.0975 321.5,69C 324.95,69.1751 328.283,69.3418 331.5,69.5C 332.366,71.4317 333.033,73.4317 333.5,75.5C 333.41,77.4251 332.41,78.5917 330.5,79C 324.325,81.2559 318.325,80.9225 312.5,78C 310.383,76.2691 308.883,74.1024 308,71.5C 306.577,61.5797 306.077,51.5797 306.5,41.5C 304.167,41.5 301.833,41.5 299.5,41.5C 299.5,38.5 299.5,35.5 299.5,32.5C 302.167,32.5 304.833,32.5 307.5,32.5C 307.5,29.1667 307.5,25.8333 307.5,22.5C 310.096,21.7347 312.763,21.4013 315.5,21.5 Z"/></g>
<g><path style="opacity:1" fill="#9b9b9b" d="M 307.5,22.5 C 307.5,25.8333 307.5,29.1667 307.5,32.5C 304.833,32.5 302.167,32.5 299.5,32.5C 301.607,31.5318 303.941,31.1984 306.5,31.5C 306.19,28.2869 306.523,25.2869 307.5,22.5 Z"/></g>
<g><path style="opacity:1" fill="#f6f6f6" d="M 259.5,25.5 C 271.788,26.35 272.788,30.5167 262.5,38C 269.706,49.3848 267.039,57.7181 254.5,63C 250.167,63.3333 245.833,63.6667 241.5,64C 240.009,66.0217 240.342,67.6883 242.5,69C 250.354,68.9098 258.021,69.9098 265.5,72C 271.115,76.131 272.948,81.631 271,88.5C 268.111,94.5414 263.277,98.0414 256.5,99C 247.99,100.114 239.656,99.4477 231.5,97C 224.388,91.6551 223.721,85.6551 229.5,79C 231.087,78.1376 232.754,77.4709 234.5,77C 227.163,70.022 228.163,64.6886 237.5,61C 228.563,54.0612 227.229,45.8945 233.5,36.5C 235.493,34.5014 237.827,33.0014 240.5,32C 246.04,31.2364 251.54,31.4031 257,32.5C 259.134,30.7129 259.967,28.3795 259.5,25.5 Z"/></g>
<g><path style="opacity:1" fill="#040404" d="M 453.5,26.5 C 459.176,26.3339 464.843,26.5006 470.5,27C 473.428,30.2572 474.262,34.0906 473,38.5C 472.097,39.7014 470.931,40.5348 469.5,41C 464.177,41.4994 458.844,41.666 453.5,41.5C 453.5,36.5 453.5,31.5 453.5,26.5 Z"/></g>
<g><path style="opacity:1" fill="#010101" d="M 151.5,27.5 C 174.192,24.3585 183.359,34.0252 179,56.5C 177.833,63 174,66.8333 167.5,68C 162.177,68.4994 156.844,68.666 151.5,68.5C 151.5,54.8333 151.5,41.1667 151.5,27.5 Z"/></g>
<g><path style="opacity:1" fill="#737373" d="M 315.5,21.5 C 316.568,20.5655 317.901,20.2322 319.5,20.5C 319.5,24.1667 319.5,27.8333 319.5,31.5C 324.032,31.1818 328.366,31.5151 332.5,32.5C 327.833,32.5 323.167,32.5 318.5,32.5C 318.5,28.8333 318.5,25.1667 318.5,21.5C 317.5,21.5 316.5,21.5 315.5,21.5 Z"/></g>
<g><path style="opacity:1" fill="#f8f8f8" d="M 351.5,31.5 C 358.704,30.945 365.704,31.7783 372.5,34C 374.617,35.7309 376.117,37.8976 377,40.5C 377.333,49.8333 377.667,59.1667 378,68.5C 379.401,70.1922 381.234,70.8588 383.5,70.5C 383.777,73.4475 383.444,76.2809 382.5,79C 378.833,79.6667 375.167,79.6667 371.5,79C 369.641,77.4422 368.141,75.6089 367,73.5C 359.528,81.614 351.195,82.614 342,76.5C 335.593,66.1624 337.759,58.329 348.5,53C 354.1,51.7489 359.6,50.2489 365,48.5C 366.812,42.9786 364.812,40.3119 359,40.5C 353.687,41.4652 349.02,43.7986 345,47.5C 343.167,45 341.333,42.5 339.5,40C 343.04,36.4071 347.04,33.5738 351.5,31.5 Z"/></g>
<g><path style="opacity:1" fill="#f6f6f6" d="M 548.5,31.5 C 553.844,31.334 559.177,31.5006 564.5,32C 569.694,33.1935 572.86,36.3601 574,41.5C 574.5,50.8274 574.666,60.1607 574.5,69.5C 576.5,69.5 578.5,69.5 580.5,69.5C 580.784,72.7766 580.451,75.9433 579.5,79C 572.65,81.0894 567.317,79.256 563.5,73.5C 558.763,80.0541 552.429,82.2207 544.5,80C 536.66,75.8488 533.827,69.3488 536,60.5C 537.5,57.6667 539.667,55.5 542.5,54C 547.703,52.1593 553.036,50.826 558.5,50C 562.354,48.3924 563.354,45.7258 561.5,42C 553.819,39.9993 547.319,41.8327 542,47.5C 539.92,45.0072 538.086,42.3405 536.5,39.5C 540.255,36.3016 544.255,33.6349 548.5,31.5 Z"/></g>
<g><path style="opacity:1" fill="#f4f4f4" d="M 634.5,31.5 C 639.599,31.1746 644.599,31.6746 649.5,33C 652,34.1667 653.833,36 655,38.5C 656.446,52.0934 656.946,65.76 656.5,79.5C 652.5,79.5 648.5,79.5 644.5,79.5C 644.667,68.1618 644.5,56.8284 644,45.5C 642.471,42.484 639.971,41.1506 636.5,41.5C 631.967,41.3493 628.8,43.3493 627,47.5C 626.5,58.1615 626.333,68.8281 626.5,79.5C 622.167,79.5 617.833,79.5 613.5,79.5C 613.5,63.8333 613.5,48.1667 613.5,32.5C 617.5,32.5 621.5,32.5 625.5,32.5C 625.337,34.8568 625.503,37.1902 626,39.5C 628.074,35.9231 630.907,33.2565 634.5,31.5 Z"/></g>
<g><path style="opacity:1" fill="#aaaaaa" d="M 216.5,32.5 C 212.833,32.5 209.167,32.5 205.5,32.5C 205.5,48.1667 205.5,63.8333 205.5,79.5C 204.504,63.6754 204.17,47.6754 204.5,31.5C 208.702,31.1832 212.702,31.5166 216.5,32.5 Z"/></g>
<g><path style="opacity:1" fill="#fefffe" d="M 216.5,32.5 C 216.5,48.1667 216.5,63.8333 216.5,79.5C 212.833,79.5 209.167,79.5 205.5,79.5C 205.5,63.8333 205.5,48.1667 205.5,32.5C 209.167,32.5 212.833,32.5 216.5,32.5 Z"/></g>
<g><path style="opacity:1" fill="#fdfdfd" d="M 279.5,32.5 C 283.5,32.5 287.5,32.5 291.5,32.5C 291.5,48.1667 291.5,63.8333 291.5,79.5C 287.5,79.5 283.5,79.5 279.5,79.5C 279.5,63.8333 279.5,48.1667 279.5,32.5 Z"/></g>
<g><path style="opacity:1" fill="#f9f9f9" d="M 512.5,32.5 C 512.192,34.924 512.526,37.2573 513.5,39.5C 514.107,39.3764 514.44,39.0431 514.5,38.5C 517.459,32.0273 522.459,29.8606 529.5,32C 530.428,32.3879 531.095,33.0546 531.5,34C 530.434,37.0937 529.768,40.2604 529.5,43.5C 522.529,40.9041 517.362,42.9041 514,49.5C 513.5,59.4944 513.334,69.4944 513.5,79.5C 509.5,79.5 505.5,79.5 501.5,79.5C 501.5,63.8333 501.5,48.1667 501.5,32.5C 505.167,32.5 508.833,32.5 512.5,32.5 Z"/></g>
<g><path style="opacity:1" fill="#7c7c7c" d="M 512.5,32.5 C 513.167,34.5 513.833,36.5 514.5,38.5C 514.44,39.0431 514.107,39.3764 513.5,39.5C 512.526,37.2573 512.192,34.924 512.5,32.5 Z"/></g>
<g><path style="opacity:1" fill="#fdfdfd" d="M 588.5,32.5 C 592.5,32.5 596.5,32.5 600.5,32.5C 600.5,48.1667 600.5,63.8333 600.5,79.5C 596.5,79.5 592.5,79.5 588.5,79.5C 588.5,63.8333 588.5,48.1667 588.5,32.5 Z"/></g>
<g><path style="opacity:1" fill="#090909" d="M 245.5,39.5 C 255.903,40.3785 258.236,45.2119 252.5,54C 242.826,55.9889 239.326,52.1556 242,42.5C 243.145,41.3636 244.312,40.3636 245.5,39.5 Z"/></g>
<g><path style="opacity:1" fill="#030303" d="M 453.5,51.5 C 459.842,51.3338 466.175,51.5005 472.5,52C 476.238,53.3989 477.904,56.0655 477.5,60C 477.902,64.2003 476.235,67.2003 472.5,69C 466.175,69.4995 459.842,69.6662 453.5,69.5C 453.5,63.5 453.5,57.5 453.5,51.5 Z"/></g>
<g><path style="opacity:1" fill="#090909" d="M 560.5,56.5 C 565.068,66.4997 561.735,71.3331 550.5,71C 547.424,68.3879 546.757,65.2213 548.5,61.5C 552.42,59.4216 556.42,57.7549 560.5,56.5 Z"/></g>
<g><path style="opacity:1" fill="#0c0c0c" d="M 364.5,56.5 C 367.046,60.3131 366.88,64.3131 364,68.5C 360.949,71.0936 357.449,71.927 353.5,71C 349.014,66.0983 349.681,62.0983 355.5,59C 358.797,58.7963 361.797,57.963 364.5,56.5 Z"/></g>
<g><path style="opacity:1" fill="#491f77" d="M 46.5,68.5 C 46.8204,71.8984 46.487,75.2317 45.5,78.5C 44.8933,78.3764 44.56,78.0431 44.5,77.5C 45.1667,74.5 45.8333,71.5 46.5,68.5 Z"/></g>
<g><path style="opacity:1" fill="#070707" d="M 238.5,80.5 C 244.509,80.3338 250.509,80.5005 256.5,81C 259.306,82.3051 260.14,84.4718 259,87.5C 257.829,88.8932 256.329,89.7265 254.5,90C 249.833,90.6667 245.167,90.6667 240.5,90C 236.242,87.4785 235.575,84.3119 238.5,80.5 Z"/></g>
</svg>
